<svg width="32" height="32" viewBox="0 0 32 32" fill="none" xmlns="http://www.w3.org/2000/svg">
  <defs>
    <linearGradient id="gradient" x1="0%" y1="0%" x2="100%" y2="100%">
      <stop offset="0%" style="stop-color:#9333ea;stop-opacity:1" />
      <stop offset="100%" style="stop-color:#ec4899;stop-opacity:1" />
    </linearGradient>
    <filter id="shadow">
      <feDropShadow dx="0" dy="1" stdDeviation="1" flood-opacity="0.2"/>
    </filter>
  </defs>
  
  <!-- Background rounded square -->
  <rect x="2" y="2" width="28" height="28" rx="8" fill="url(#gradient)" filter="url(#shadow)"/>
  
  <!-- Music note with heart accent -->
  <g transform="translate(16, 16)">
    <!-- Musical note stem -->
    <path d="M-2 -8 L-2 4 C-2 6 -4 8 -6 8 C-8 8 -10 6 -10 4 C-10 2 -8 0 -6 0 C-4 0 -2 2 -2 4" 
          stroke="white" 
          stroke-width="2" 
          fill="none" 
          stroke-linecap="round" 
          stroke-linejoin="round"/>
    
    <!-- Flag on note -->
    <path d="M-2 -8 L6 -6 L6 2 C6 4 4 6 2 6 C0 6 -2 4 -2 2" 
          stroke="white" 
          stroke-width="2" 
          fill="none" 
          stroke-linecap="round" 
          stroke-linejoin="round"/>
    
    <!-- Small heart accent -->
    <path d="M3 -3 C3 -4.5 4.5 -5.5 5.5 -4.5 C6.5 -5.5 8 -4.5 8 -3 C8 -2 6 0 5.5 1 C5 0 3 -2 3 -3 Z" 
          fill="white" 
          opacity="0.9"/>
  </g>
</svg>